<svg width="67" height="67" viewBox="0 0 67 67" fill="none" xmlns="http://www.w3.org/2000/svg">
<g id="box">
<path id="Vector" d="M58.625 44.0376V22.0188C58.624 21.0535 58.3655 20.1054 57.8755 19.2697C57.3856 18.4339 56.6813 17.7399 55.8333 17.2573L36.2917 6.24786C35.4429 5.76473 34.4801 5.51038 33.5 5.51038C32.5199 5.51038 31.5571 5.76473 30.7083 6.24786L11.1667 17.2573C10.3187 17.7399 9.61444 18.4339 9.12445 19.2697C8.63447 20.1054 8.376 21.0535 8.375 22.0188V44.0376C8.376 45.0029 8.63447 45.951 9.12445 46.7867C9.61444 47.6225 10.3187 48.3165 11.1667 48.7992L30.7083 59.8085C31.5571 60.2917 32.5199 60.546 33.5 60.546C34.4801 60.546 35.4429 60.2917 36.2917 59.8085L55.8333 48.7992C56.6813 48.3165 57.3856 47.6225 57.8755 46.7867C58.3655 45.951 58.624 45.0029 58.625 44.0376Z" stroke="#FFFBFB" stroke-width="2" stroke-linecap="round" stroke-linejoin="round"/>
<path id="Vector_2" d="M9.12875 19.1564L33.5 33.0557L57.8712 19.1564" stroke="#FFFBFB" stroke-width="2" stroke-linecap="round" stroke-linejoin="round"/>
<path id="Vector_3" d="M33.5 60.7719V33.0282" stroke="#FFFBFB" stroke-width="2" stroke-linecap="round" stroke-linejoin="round"/>
</g>
</svg>
